<svg width="66" height="53" viewBox="0 0 66 53" fill="none" xmlns="http://www.w3.org/2000/svg">
<g style="mix-blend-mode:lighten">
<path d="M63.5037 0.00104305H1.688C0.752172 0.00104305 0 0.761086 0 1.68904C0 2.62487 0.760043 3.37704 1.688 3.37704H12.6719V50.6085H12.6797C12.6797 51.0002 12.8158 51.3847 13.0876 51.7045C13.6959 52.4087 14.7595 52.4963 15.4637 51.8886L32.5995 37.1443L49.6323 51.8072C49.9364 52.1113 50.3606 52.3033 50.8243 52.3033C51.7601 52.3033 52.5123 51.5433 52.5123 50.6153V3.38386H63.4961C64.432 3.38386 65.1841 2.62382 65.1841 1.69586C65.1919 0.760029 64.4319 0 63.5039 0L63.5037 0.00104305ZM49.128 46.9296L33.688 33.6416C33.0401 33.0897 32.0959 33.1137 31.4799 33.6578L16.0556 46.9295V14.2252H49.1356L49.1361 46.9295L49.128 46.9296ZM49.128 10.8496H16.0566V3.3859H49.1366L49.1371 10.8496H49.128Z" fill="#F7F7F7"/>
</g>
</svg>
