<svg width="111" height="99" viewBox="0 0 111 99" fill="none" xmlns="http://www.w3.org/2000/svg">
<path d="M38.2622 54.3999C38.2638 54.4008 38.2672 54.4008 38.2688 54.4016C38.6907 54.4627 39.1101 54.4929 39.5286 54.4929C41.9929 54.4929 44.3818 53.4365 46.3615 51.4459C49.1155 48.6752 50.5375 44.5202 49.9842 40.8606C49.3238 36.4879 45.8106 32.9739 41.443 32.316C38.119 31.8037 34.8771 32.8651 32.5352 35.2215C30.1913 37.5769 29.1527 40.8281 29.6818 44.1336C30.3732 48.5541 33.8494 53.7362 38.2624 54.4001L38.2622 54.3999Z" fill="#011826"/>
<path d="M21.415 63.2905V72.5809H17.0406C16.0654 72.5809 15.2761 73.3711 15.2761 74.3454C15.2761 75.3197 16.0654 76.1099 17.0406 76.1099H62.6148C63.59 76.1099 64.3794 75.3197 64.3794 74.3454C64.3794 73.3711 63.59 72.5809 62.6148 72.5809H58.2445L58.2436 63.2905C58.2436 58.1552 55.0846 53.7255 50.6022 51.8732C50.0908 52.5964 49.5082 53.3029 48.8729 53.9382C46.2436 56.5675 42.9256 58.0321 39.5373 58.0321C38.9371 58.0321 38.3546 57.9794 37.7552 57.8906L37.2078 57.8203L37.1375 57.7852C33.873 57.0971 31.0672 54.7676 29.1084 51.8555C24.6093 53.6903 21.4151 58.1199 21.4151 63.2904L21.415 63.2905Z" fill="#011826"/>
<path d="M97.1671 79.9319H63.3293C60.9304 79.9319 58.6887 81.2184 57.4767 83.291C56.8975 84.2838 55.8227 84.8998 54.6709 84.8998H44.9284C43.7791 84.8998 42.7034 84.2829 42.1225 83.291C40.9146 81.2185 38.6706 79.9319 36.2699 79.9319H4.54064C2.407 79.9319 0.670212 81.6679 0.670212 83.8017V86.374C0.670212 92.9414 6.01407 98.2852 12.5824 98.2852L89.1252 98.2844C95.6926 98.2844 101.037 92.9414 101.037 86.3731V83.8008C101.037 81.668 99.3021 79.9319 97.1684 79.9319L97.1671 79.9319ZM78.9218 91.0972H77.693C76.7178 91.0972 75.9285 90.3071 75.9285 89.3327C75.9285 88.3584 76.7178 87.5682 77.693 87.5682H78.9218C79.897 87.5682 80.6863 88.3584 80.6863 89.3327C80.6863 90.3071 79.897 91.0972 78.9218 91.0972ZM88.9722 91.0972H87.7451C86.7699 91.0972 85.9806 90.3071 85.9806 89.3327C85.9806 88.3584 86.7699 87.5682 87.7451 87.5682H88.9722C89.9474 87.5682 90.7367 88.3584 90.7367 89.3327C90.7367 90.3071 89.9474 91.0972 88.9722 91.0972Z" fill="#011826"/>
<path d="M94.6986 58.1348H87.3207L85.8902 68.8893L89.7122 64.6071C90.0462 64.2321 90.5258 64.0178 91.0289 64.0178H91.0305C91.5353 64.0186 92.0149 64.2337 92.3489 64.6104L96.1248 68.8627L94.6986 58.1348Z" fill="#011826"/>
<path d="M72.01 62.4827C74.9314 60.6931 79.5736 56.9991 80.5529 51.1817C80.4927 51.0687 80.445 50.9532 80.3847 50.8393C79.8975 49.911 79.438 48.9785 79.0119 48.041C78.9533 47.9112 78.8889 47.7832 78.8311 47.6534C78.3824 46.6456 77.9765 45.6319 77.5981 44.614C77.5161 44.3947 77.4374 44.1745 77.3587 43.9544C76.9921 42.9248 76.6514 41.891 76.3568 40.853C76.3342 40.7727 76.3158 40.6906 76.2932 40.6103C76.0161 39.6159 75.7792 38.6181 75.5691 37.6178C75.544 37.4997 75.5072 37.3826 75.4837 37.2654C73.9176 38.6189 72.0627 40.715 72.0234 43.0862C71.9598 46.9785 71.9891 57.3772 72.01 62.4825L72.01 62.4827Z" fill="#011826"/>
<path d="M110.044 43.0833C110.003 40.6919 108.148 38.5842 106.582 37.2256C106.556 37.3486 106.518 37.4708 106.492 37.5939C106.283 38.5808 106.046 39.5685 105.769 40.5545C105.748 40.6273 105.732 40.701 105.711 40.7738C105.416 41.8042 105.073 42.8338 104.704 43.8616C104.624 44.0851 104.543 44.3078 104.46 44.5313C104.08 45.5441 103.672 46.5553 103.221 47.5638C103.156 47.7087 103.084 47.8526 103.017 47.9974C102.593 48.9249 102.137 49.8482 101.653 50.7699C101.589 50.8912 101.538 51.0143 101.473 51.1356C102.479 57.0126 107.136 60.6881 110.057 62.4576C110.076 57.3609 110.106 46.9504 110.044 43.0832L110.044 43.0833Z" fill="#011826"/>
<path d="M104.391 10.932L103.878 9.78442L104.302 10.9672L104.391 10.932Z" fill="#011826"/>
<path d="M99.7514 9.24554C97.6914 4.69775 95.2465 1.01311 93.2819 -1.54653C92.737 -2.25468 91.9183 -2.66064 91.0345 -2.66064H91.0328C90.1489 -2.66064 89.3302 -2.25468 88.7871 -1.54653C86.815 1.02233 84.3599 4.72476 82.2949 9.2974C84.9072 10.6869 91.4982 13.2006 99.7517 9.2455L99.7514 9.24554Z" fill="#011826"/>
<path d="M78.4943 33.914C78.9882 37.5209 79.9658 41.1093 81.3921 44.6401C81.8524 45.7802 82.3513 46.916 82.9071 48.0419C83.2327 48.7007 83.5743 49.3577 83.9317 50.0107C84.8516 51.6555 85.769 53.1697 86.7165 54.6052H95.3073C96.3552 53.024 97.2877 51.4729 98.0838 49.983C100.635 45.3232 102.366 40.5939 103.247 35.8879C103.372 35.2158 103.481 34.5436 103.572 33.8723C103.574 33.8706 103.574 33.8681 103.574 33.8656C104.702 25.8048 103.348 18.5517 101.111 12.5232C97.364 14.2936 93.8935 14.9264 90.8675 14.9264C86.4387 14.9264 82.9632 13.593 80.9427 12.5693C78.7145 18.5961 77.3684 25.8449 78.4917 33.9057C78.4933 33.909 78.4942 33.9116 78.4942 33.9141L78.4943 33.914ZM91.4301 21.5298C95.6297 21.5298 99.0456 24.9466 99.0456 29.1453C99.0456 33.3683 95.6297 36.8035 91.4301 36.8035C87.208 36.8035 83.7736 33.3683 83.7736 29.1453C83.7736 24.9466 87.208 21.5298 91.4301 21.5298Z" fill="#011826"/>
<path d="M91.4286 33.2735C93.6811 33.2735 95.5141 31.4211 95.5141 29.1442C95.5141 26.8907 93.6801 25.0586 91.4286 25.0586C89.1518 25.0586 87.301 26.8917 87.301 29.1442C87.301 31.421 89.1517 33.2735 91.4286 33.2735Z" fill="#011826"/>
<path d="M9.60786 33.4855C9.60786 29.9565 12.484 27.0619 16.0315 27.0619H74.5851C74.5851 25.88 74.6554 24.6972 74.7969 23.5328L16.0333 23.532C10.5448 23.532 6.08078 27.9968 6.08078 33.4845V76.4016H9.60985L9.60786 33.4855Z" fill="#011826"/>
<path d="M92.0907 76.4026H95.6207V73.5968L92.0907 69.6267V76.4026Z" fill="#011826"/>
</svg>
