<svg width="89" height="104" viewBox="0 0 89 104" fill="none" xmlns="http://www.w3.org/2000/svg">
<path d="M88.0594 68.62V24.66C88.0594 21.2998 85.3376 18.5662 82.0136 18.5662H77.8254V21.86H82.0136C83.5457 21.86 84.8003 23.1115 84.8003 24.66V67.038H3.70634V24.66C3.70634 23.1115 4.96094 21.86 6.49305 21.86H10.6812V18.5662H6.49305C3.15205 18.5662 0.447266 21.3006 0.447266 24.66V77.482C0.447266 80.8586 3.15284 83.593 6.49305 83.593H82.0124C85.3372 83.593 88.0582 80.8586 88.0582 77.482V68.7688C88.0582 68.736 88.0744 68.7195 88.0744 68.686C88.0744 68.6703 88.0582 68.6539 88.0582 68.6211L88.0594 68.62ZM45.7027 76.938H42.8186C41.9219 76.938 41.1891 76.1966 41.1891 75.2911C41.1891 74.3848 41.9227 73.6442 42.8186 73.6442H45.7027C46.6156 73.6442 47.3322 74.3856 47.3322 75.2911C47.3322 76.1965 46.6148 76.938 45.7027 76.938Z" fill="#011826"/>
<path d="M66.1271 99.7638H62.1708C57.7106 96.2864 54.6579 91.1434 53.2171 86.8872H35.29C33.8492 91.1434 30.7965 96.2872 26.3362 99.7638H22.3907C21.4901 99.7638 20.7612 100.501 20.7612 101.411C20.7612 102.32 21.4901 103.058 22.3907 103.058H26.8943C26.9005 103.058 26.9067 103.061 26.9136 103.061H61.5941C61.6003 103.061 61.6065 103.058 61.6135 103.058H66.1278C67.0283 103.058 67.7573 102.32 67.7573 101.411C67.7573 100.501 67.0283 99.7638 66.1278 99.7638H66.1271Z" fill="#011826"/>
<path d="M62.4978 43.4978H46.6401L53.4743 57.8072C58.4618 54.8588 61.9621 49.608 62.4978 43.4978Z" fill="#011826"/>
<path d="M25.9492 41.852C25.9492 45.6918 27.1164 49.2606 29.1101 52.2192L42.6292 40.8848V23.4058C33.2927 24.2479 25.9492 32.1996 25.9492 41.8518V41.852Z" fill="#011826"/>
<path d="M50.5273 59.2099L43.479 44.4529L31.1818 54.7623C34.5111 58.1991 39.1469 60.3413 44.2743 60.3413C46.4719 60.3405 48.5731 59.9311 50.5273 59.21V59.2099Z" fill="#011826"/>
<path d="M45.9045 23.2139V40.0123H62.4833C61.7057 31.1163 54.689 24.0091 45.9045 23.2139Z" fill="#011826"/>
<path d="M74.5711 4.9069C74.5711 2.7193 72.8094 0.939697 70.6449 0.939697H17.8712C15.7067 0.939697 13.9466 2.71938 13.9466 4.9069V12.4999H74.5707L74.5711 4.9069ZM23.3291 8.3663H22.7802C21.8797 8.3663 21.1507 7.6288 21.1507 6.71942C21.1507 5.81004 21.8797 5.07254 22.7802 5.07254H23.3291C24.2296 5.07254 24.9586 5.81004 24.9586 6.71942C24.9586 7.6288 24.2296 8.3663 23.3291 8.3663ZM30.5481 8.3663H29.9993C29.0987 8.3663 28.3698 7.6288 28.3698 6.71942C28.3698 5.81004 29.0987 5.07254 29.9993 5.07254H30.5481C31.4487 5.07254 32.1777 5.81004 32.1777 6.71942C32.1777 7.6288 31.4487 8.3663 30.5481 8.3663ZM65.7372 8.3663H49.3083C48.4077 8.3663 47.6787 7.6288 47.6787 6.71942C47.6787 5.81004 48.4077 5.07254 49.3083 5.07254H65.7372C66.6378 5.07254 67.3667 5.81004 67.3667 6.71942C67.3667 7.6288 66.6385 8.3663 65.7372 8.3663Z" fill="#011826"/>
<path d="M17.8732 54.7179H26.8975C24.2653 51.1077 22.6907 46.6671 22.6907 41.8507C22.6907 30.0953 31.9445 20.5087 43.4732 20.0767C43.7098 19.9407 43.9695 19.8423 44.2617 19.8423C56.1469 19.8423 65.8161 29.6283 65.8161 41.6563C65.8161 41.6766 65.8052 41.693 65.8045 41.7125C65.8083 41.7602 65.8315 41.8008 65.8315 41.8493C65.8315 46.6649 64.2584 51.1055 61.6303 54.7165H70.6474C72.812 54.7165 74.5736 52.9368 74.5736 50.7493V15.7913H13.9495V50.7493C13.9495 52.9369 15.7097 54.7165 17.8741 54.7165L17.8732 54.7179Z" fill="#011826"/>
</svg>
