<svg width="100" height="77" viewBox="0 0 100 77" fill="none" xmlns="http://www.w3.org/2000/svg">
<path d="M84.6542 6.89822C78.2806 3.97371 71.4458 1.81907 64.2996 0.585011C64.1694 0.561194 64.0394 0.620714 63.9724 0.739756C63.0934 2.30315 62.1197 4.34273 61.4379 5.94583C53.7517 4.79512 46.1049 4.79512 38.5763 5.94583C37.8944 4.3071 36.8854 2.30315 36.0024 0.739756C35.9354 0.624685 35.8054 0.565166 35.6752 0.585011C28.533 1.81512 21.6982 3.96977 15.3206 6.89822C15.2654 6.92202 15.218 6.96174 15.1866 7.01329C2.22247 26.3815 -1.32896 45.2736 0.413251 63.9315C0.421134 64.0227 0.472374 64.11 0.543325 64.1655C9.0967 70.4469 17.3821 74.2603 25.5137 76.7879C25.6438 76.8277 25.7817 76.7801 25.8645 76.6729C27.788 74.0461 29.5027 71.2764 30.9728 68.3637C31.0596 68.1931 30.9768 67.9908 30.7994 67.9233C28.0797 66.8916 25.49 65.6337 22.9989 64.2053C22.8018 64.0902 22.7861 63.8084 22.9673 63.6734C23.4916 63.2806 24.0159 62.8719 24.5165 62.4592C24.607 62.3839 24.7332 62.3679 24.8397 62.4155C41.2054 69.8875 58.9231 69.8875 75.0956 62.4155C75.2021 62.364 75.3283 62.3799 75.4228 62.4553C75.9235 62.8679 76.4477 63.2806 76.9759 63.6734C77.1572 63.8084 77.1454 64.0902 76.9483 64.2053C74.4572 65.6615 71.8675 66.8916 69.1438 67.9193C68.9665 67.9868 68.8876 68.1931 68.9744 68.3637C70.4761 71.2723 72.1907 74.042 74.0787 76.6689C74.1576 76.7801 74.2994 76.8277 74.4296 76.7879C82.6006 74.2603 90.8859 70.4469 99.4393 64.1655C99.5142 64.11 99.5615 64.0267 99.5694 63.9354C101.655 42.3648 96.077 23.6277 84.7842 7.01724C84.7566 6.96174 84.7094 6.92202 84.6542 6.89822ZM33.4168 52.5708C28.4896 52.5708 24.4297 48.0472 24.4297 42.4919C24.4297 36.9365 28.4108 32.413 33.4168 32.413C38.462 32.413 42.4825 36.9762 42.4037 42.4919C42.4037 48.0472 38.4225 52.5708 33.4168 52.5708ZM66.6448 52.5708C61.7177 52.5708 57.6579 48.0472 57.6579 42.4919C57.6579 36.9365 61.6389 32.413 66.6448 32.413C71.6901 32.413 75.7106 36.9762 75.6318 42.4919C75.6318 48.0472 71.6901 52.5708 66.6448 52.5708Z" fill="#011826"/>
</svg>
