<svg width="294" height="172" viewBox="0 0 294 172" fill="none" xmlns="http://www.w3.org/2000/svg">
<path d="M31.6018 5.248C28.9138 5.33334 26.8444 6.35734 25.3938 8.32C23.9858 10.2827 23.2818 13.6747 23.2818 18.496C23.2818 20.0747 23.4311 21.184 23.7298 21.824C24.0284 22.4213 24.1778 22.7627 24.1778 22.848C21.8738 22.848 20.1458 22.3787 18.9938 21.44C17.8844 20.4587 17.3298 18.8587 17.3298 16.64C17.3298 13.6107 18.0764 10.8587 19.5698 8.384C21.0631 5.86667 23.4311 3.84 26.6738 2.304C29.9591 0.768 34.1191 0 39.1538 0C40.1778 0 41.5431 0.106667 43.2498 0.32C46.3218 0.618668 48.4978 0.768002 49.7778 0.768002C52.0391 0.768002 53.9591 0.512001 55.5378 0C55.4098 0.384 55.1751 1.23733 54.8338 2.56C54.4924 3.84 53.8738 4.94934 52.9778 5.888C52.1244 6.784 50.9511 7.38133 49.4578 7.68C46.9404 7.68 43.9538 7.27467 40.4978 6.464L37.8098 19.2H47.1538L46.1298 23.936H36.7858L31.6018 48H22.3858L31.6018 5.248Z" fill="#0F5580"/>
<path d="M56.4328 48.256C53.2754 48.256 50.7794 47.4453 48.9448 45.824C47.1101 44.2027 46.1928 41.6427 46.1928 38.144C46.1928 35.2427 46.7901 32.0213 47.9848 28.48C49.1794 24.9387 51.0994 21.888 53.7448 19.328C56.3901 16.7253 59.7181 15.424 63.7288 15.424C69.1901 15.424 71.9208 18.8373 71.9208 25.664V25.728C72.0488 25.7707 72.2834 25.792 72.6248 25.792C74.0328 25.792 75.6541 25.4293 77.4888 24.704C79.3234 23.936 80.9874 23.0187 82.4808 21.952L83.0568 23.68C81.8194 25.0027 80.1981 26.1333 78.1928 27.072C76.2301 27.968 74.0754 28.608 71.7288 28.992C71.3874 32.8747 70.5128 36.2667 69.1048 39.168C67.6968 42.0693 65.8834 44.3093 63.6648 45.888C61.4461 47.4667 59.0354 48.256 56.4328 48.256ZM58.9928 42.496C60.0168 42.496 61.0408 41.92 62.0648 40.768C63.0888 39.5733 63.9848 37.9733 64.7528 35.968C65.5208 33.92 66.0754 31.6587 66.4168 29.184C65.2648 28.928 64.6888 28.032 64.6888 26.496C64.6888 24.7467 65.3501 23.5947 66.6728 23.04C66.5874 21.632 66.3741 20.672 66.0328 20.16C65.6914 19.6053 65.0941 19.328 64.2408 19.328C62.8328 19.328 61.4674 20.352 60.1448 22.4C58.8221 24.448 57.7554 26.9013 56.9448 29.76C56.1341 32.6187 55.7288 35.136 55.7288 37.312C55.7288 39.36 55.9634 40.7467 56.4328 41.472C56.9021 42.1547 57.7554 42.496 58.9928 42.496Z" fill="#0F5580"/>
<path d="M80.5258 16H89.7418L88.9098 19.968C90.3604 18.688 91.6618 17.7067 92.8138 17.024C94.0084 16.3413 95.2884 16 96.6538 16C98.0191 16 99.0858 16.4693 99.8538 17.408C100.664 18.3467 101.07 19.4773 101.07 20.8C101.07 22.0373 100.664 23.1253 99.8538 24.064C99.0431 25.0027 97.9124 25.472 96.4618 25.472C95.5231 25.472 94.8831 25.2587 94.5418 24.832C94.2431 24.3627 94.0084 23.7013 93.8378 22.848C93.7098 22.2933 93.5818 21.888 93.4538 21.632C93.3258 21.376 93.0911 21.248 92.7498 21.248C91.8538 21.248 91.0858 21.44 90.4458 21.824C89.8484 22.1653 89.0591 22.784 88.0778 23.68L82.9578 48H73.7418L80.5258 16Z" fill="#0F5580"/>
<path d="M140.108 48.384C137.506 48.384 135.586 47.7013 134.348 46.336C133.154 44.928 132.556 43.2 132.556 41.152C132.556 40.256 132.663 39.2533 132.876 38.144C133.09 36.992 133.303 35.8827 133.516 34.816C133.772 33.7493 133.943 33.0667 134.028 32.768C134.37 31.2747 134.69 29.8027 134.988 28.352C135.287 26.9013 135.436 25.728 135.436 24.832C135.436 22.656 134.668 21.568 133.132 21.568C132.023 21.568 131.042 22.1227 130.188 23.232C129.335 24.2987 128.652 25.7067 128.14 27.456L123.788 48H114.572L119.244 25.92C119.372 25.408 119.436 24.8747 119.436 24.32C119.436 22.4427 118.796 21.504 117.516 21.504C116.322 21.504 115.276 22.0587 114.38 23.168C113.527 24.2347 112.844 25.664 112.332 27.456L107.98 48H98.7643L105.548 16H114.764L114.06 19.328C116.236 16.896 118.839 15.68 121.868 15.68C125.623 15.68 127.82 17.5147 128.46 21.184C130.807 17.5573 133.772 15.744 137.356 15.744C139.532 15.744 141.26 16.3413 142.54 17.536C143.82 18.7307 144.46 20.544 144.46 22.976C144.46 24.2133 144.311 25.6 144.012 27.136C143.714 28.6293 143.287 30.464 142.732 32.64C142.391 33.9627 142.071 35.264 141.772 36.544C141.516 37.7813 141.388 38.7627 141.388 39.488C141.388 40.3413 141.58 41.0027 141.964 41.472C142.348 41.9413 143.01 42.176 143.948 42.176C145.228 42.176 146.252 41.728 147.02 40.832C147.788 39.8933 148.556 38.464 149.324 36.544H152.012C150.434 41.2373 148.599 44.3947 146.508 46.016C144.46 47.5947 142.327 48.384 140.108 48.384Z" fill="#0F5580"/>
<path d="M157.961 48.384C155.529 48.384 153.503 47.552 151.881 45.888C150.26 44.224 149.449 41.6213 149.449 38.08C149.449 34.9227 150.068 31.616 151.305 28.16C152.585 24.6613 154.463 21.7173 156.937 19.328C159.455 16.896 162.441 15.68 165.897 15.68C167.647 15.68 168.948 15.9787 169.801 16.576C170.655 17.1733 171.081 17.9627 171.081 18.944V19.392L171.785 16H181.001L176.393 37.76C176.223 38.4 176.137 39.0827 176.137 39.808C176.137 41.6427 177.012 42.56 178.761 42.56C179.956 42.56 180.98 42.0053 181.833 40.896C182.729 39.7867 183.433 38.336 183.945 36.544H186.633C185.055 41.152 183.092 44.288 180.745 45.952C178.441 47.5733 176.116 48.384 173.769 48.384C171.977 48.384 170.527 47.8933 169.417 46.912C168.351 45.888 167.711 44.416 167.497 42.496C166.26 44.2453 164.873 45.6747 163.337 46.784C161.844 47.8507 160.052 48.384 157.961 48.384ZM162.121 42.176C163.188 42.176 164.233 41.6853 165.257 40.704C166.324 39.68 167.049 38.2933 167.433 36.544L170.505 22.08C170.505 21.5253 170.292 20.992 169.865 20.48C169.439 19.9253 168.777 19.648 167.881 19.648C166.175 19.648 164.639 20.6507 163.273 22.656C161.908 24.6187 160.841 27.008 160.073 29.824C159.305 32.5973 158.921 35.0507 158.921 37.184C158.921 39.3173 159.22 40.6827 159.817 41.28C160.457 41.8773 161.225 42.176 162.121 42.176Z" fill="#0F5580"/>
<path d="M196.769 61.952C195.318 61.952 194.102 61.8027 193.121 61.504C192.139 61.2053 191.073 60.7573 189.921 60.16C190.689 58.7947 191.542 58.112 192.481 58.112C193.121 58.112 193.611 58.1973 193.953 58.368C194.337 58.5387 194.763 58.7733 195.233 59.072C196.001 59.584 196.662 59.84 197.217 59.84C197.729 59.84 198.177 59.5627 198.561 59.008C198.945 58.4533 199.137 57.8347 199.137 57.152C199.137 56.4693 198.923 55.9147 198.497 55.488C198.113 55.0613 197.494 54.848 196.641 54.848C195.873 54.848 195.254 54.912 194.785 55.04C194.358 55.168 193.867 55.36 193.313 55.616L195.937 48.256C195.169 48.3413 194.55 48.384 194.081 48.384C190.923 48.384 188.47 47.5733 186.721 45.952C184.971 44.288 184.097 41.7067 184.097 38.208C184.097 35.264 184.673 32.0213 185.825 28.48C187.019 24.9387 188.897 21.888 191.457 19.328C194.059 16.7253 197.345 15.424 201.313 15.424C203.873 15.424 205.686 15.9787 206.753 17.088C207.862 18.1973 208.417 19.6053 208.417 21.312C208.417 22.8053 208.097 23.9573 207.457 24.768C206.817 25.5787 206.006 25.984 205.025 25.984C204.299 25.984 203.553 25.728 202.785 25.216C203.297 23.808 203.553 22.5493 203.553 21.44C203.553 20.6293 203.403 19.9893 203.105 19.52C202.806 19.0507 202.358 18.816 201.761 18.816C200.481 18.816 199.201 19.8613 197.921 21.952C196.641 24.0427 195.595 26.5813 194.785 29.568C193.974 32.5547 193.569 35.2427 193.569 37.632C193.569 39.7227 193.931 41.152 194.657 41.92C195.382 42.6453 196.555 43.008 198.177 43.008C200.481 43.008 202.443 42.4747 204.065 41.408C205.729 40.3413 207.542 38.72 209.505 36.544H211.681C208.054 42.5173 203.809 46.2293 198.945 47.68L197.089 52.224C198.539 51.8827 199.67 51.712 200.481 51.712C203.126 51.712 204.449 52.7787 204.449 54.912C204.449 57.088 203.681 58.7947 202.145 60.032C200.609 61.312 198.817 61.952 196.769 61.952Z" fill="#0F5580"/>
<path d="M233.555 11.584C232.574 11.584 231.657 11.4773 230.803 11.264C229.95 11.0507 228.926 10.7307 227.731 10.304C226.494 9.92 225.555 9.64267 224.915 9.472C224.275 9.30134 223.571 9.216 222.803 9.216C221.225 9.216 219.817 9.77067 218.579 10.88L218.259 10.752C219.241 8.704 220.649 7.14667 222.483 6.08C224.318 5.01334 226.473 4.48 228.947 4.48C230.014 4.48 230.974 4.58667 231.827 4.8C232.723 4.97067 233.705 5.248 234.771 5.632C235.753 5.97333 236.585 6.22933 237.267 6.4C237.95 6.528 238.697 6.592 239.507 6.592C241.129 6.592 242.473 6.10134 243.539 5.12L243.859 5.184C243.689 6.16534 243.07 7.168 242.003 8.192C240.979 9.17333 239.699 9.984 238.163 10.624C236.67 11.264 235.134 11.584 233.555 11.584ZM218.131 48.384C215.699 48.384 213.673 47.552 212.051 45.888C210.43 44.224 209.619 41.6213 209.619 38.08C209.619 34.9227 210.238 31.616 211.475 28.16C212.755 24.6613 214.633 21.7173 217.107 19.328C219.625 16.896 222.611 15.68 226.067 15.68C227.817 15.68 229.118 15.9787 229.971 16.576C230.825 17.1733 231.251 17.9627 231.251 18.944V19.392L231.955 16H241.171L236.563 37.76C236.393 38.4 236.307 39.0827 236.307 39.808C236.307 41.6427 237.182 42.56 238.931 42.56C240.126 42.56 241.15 42.0053 242.003 40.896C242.899 39.7867 243.603 38.336 244.115 36.544H246.803C245.225 41.152 243.262 44.288 240.915 45.952C238.611 47.5733 236.286 48.384 233.939 48.384C232.147 48.384 230.697 47.8933 229.587 46.912C228.521 45.888 227.881 44.416 227.667 42.496C226.43 44.2453 225.043 45.6747 223.507 46.784C222.014 47.8507 220.222 48.384 218.131 48.384ZM222.291 42.176C223.358 42.176 224.403 41.6853 225.427 40.704C226.494 39.68 227.219 38.2933 227.603 36.544L230.675 22.08C230.675 21.5253 230.462 20.992 230.035 20.48C229.609 19.9253 228.947 19.648 228.051 19.648C226.345 19.648 224.809 20.6507 223.443 22.656C222.078 24.6187 221.011 27.008 220.243 29.824C219.475 32.5973 219.091 35.0507 219.091 37.184C219.091 39.3173 219.39 40.6827 219.987 41.28C220.627 41.8773 221.395 42.176 222.291 42.176Z" fill="#0F5580"/>
<path d="M254.443 48.256C251.285 48.256 248.789 47.4453 246.955 45.824C245.12 44.2027 244.203 41.6427 244.203 38.144C244.203 35.2 244.779 31.9787 245.931 28.48C247.083 24.9387 248.96 21.888 251.563 19.328C254.165 16.7253 257.493 15.424 261.547 15.424C266.581 15.424 269.291 18.304 269.675 24.064C270.613 23.8507 271.445 23.3387 272.171 22.528C272.896 21.6747 273.579 20.7147 274.219 19.648H276.267C275.115 21.952 274.091 23.7653 273.195 25.088C272.299 26.368 271.125 27.4133 269.675 28.224C269.419 32.2347 268.587 35.7547 267.179 38.784C265.813 41.8133 264.021 44.16 261.803 45.824C259.584 47.4453 257.131 48.256 254.443 48.256ZM257.003 42.496C258.581 42.496 260.053 41.216 261.419 38.656C262.784 36.096 263.723 32.9387 264.235 29.184C263.211 28.8 262.699 27.84 262.699 26.304C262.699 24.64 263.296 23.5307 264.491 22.976C264.405 21.6107 264.171 20.672 263.787 20.16C263.445 19.6053 262.869 19.328 262.059 19.328C260.651 19.328 259.307 20.352 258.027 22.4C256.747 24.4053 255.701 26.8587 254.891 29.76C254.123 32.6187 253.739 35.136 253.739 37.312C253.739 39.36 253.973 40.7467 254.443 41.472C254.912 42.1547 255.765 42.496 257.003 42.496Z" fill="#0F5580"/>
<path d="M125.189 109.384C122.757 109.384 120.73 108.552 119.109 106.888C117.487 105.224 116.677 102.621 116.677 99.08C116.677 95.9227 117.295 92.616 118.533 89.16C119.813 85.6613 121.69 82.7173 124.165 80.328C126.682 77.896 129.669 76.68 133.125 76.68C134.874 76.68 136.175 76.9787 137.029 77.576C137.882 78.1733 138.309 78.9627 138.309 79.944V80.2L141.445 65.48L150.917 64.2L143.557 98.76C143.386 99.4 143.301 100.083 143.301 100.808C143.301 101.661 143.493 102.28 143.877 102.664C144.303 103.005 144.986 103.176 145.925 103.176C147.119 103.176 148.143 102.664 148.997 101.64C149.893 100.616 150.597 99.2507 151.109 97.544H153.797C151.194 105.181 146.906 109 140.933 109C139.183 109 137.754 108.531 136.645 107.592C135.578 106.653 134.917 105.288 134.661 103.496C133.551 105.203 132.207 106.611 130.629 107.72C129.093 108.829 127.279 109.384 125.189 109.384ZM129.349 103.176C130.373 103.176 131.397 102.707 132.421 101.768C133.487 100.829 134.213 99.528 134.597 97.864V97.544L137.733 82.888C137.349 81.3947 136.474 80.648 135.109 80.648C133.402 80.648 131.866 81.6507 130.501 83.656C129.135 85.6187 128.069 88.008 127.301 90.824C126.533 93.5973 126.149 96.0507 126.149 98.184C126.149 100.317 126.447 101.683 127.045 102.28C127.685 102.877 128.453 103.176 129.349 103.176Z" fill="#0F5580"/>
<path d="M161.118 109.384C158.003 109.384 155.571 108.573 153.822 106.952C152.072 105.288 151.198 102.707 151.198 99.208C151.198 96.264 151.774 93.0213 152.926 89.48C154.078 85.9387 155.955 82.888 158.558 80.328C161.16 77.7253 164.467 76.424 168.478 76.424C173.171 76.424 175.518 78.472 175.518 82.568C175.518 84.9573 174.835 87.1547 173.47 89.16C172.104 91.1653 170.291 92.7867 168.03 94.024C165.768 95.2187 163.358 95.9013 160.798 96.072C160.712 97.0107 160.67 97.6507 160.67 97.992C160.67 101.533 161.992 103.304 164.638 103.304C165.832 103.304 167.112 102.984 168.478 102.344C169.843 101.704 171.08 100.893 172.19 99.912C171.038 106.227 167.347 109.384 161.118 109.384ZM161.246 93C162.867 92.9573 164.382 92.424 165.79 91.4C167.24 90.376 168.392 89.0747 169.246 87.496C170.142 85.8747 170.59 84.1893 170.59 82.44C170.59 80.6907 170.056 79.816 168.99 79.816C167.496 79.816 166.003 81.1813 164.51 83.912C163.059 86.6 161.971 89.6293 161.246 93Z" fill="#0F5580"/>
<path d="M16.0207 127.288C12.9914 128.44 10.6447 130.232 8.98075 132.664C7.31675 135.053 6.48475 137.997 6.48475 141.496C6.48475 143.075 6.63408 144.184 6.93275 144.824C7.23141 145.421 7.38075 145.763 7.38075 145.848C5.07675 145.848 3.34875 145.379 2.19675 144.44C1.08741 143.459 0.532745 141.859 0.532745 139.64C0.532745 136.909 1.64208 134.264 3.86075 131.704C6.12208 129.101 9.00208 127.011 12.5007 125.432C15.9994 123.811 19.4981 123 22.9967 123C23.5941 123 24.4474 123.043 25.5567 123.128L26.1327 162.488L39.5728 123.32H44.0527L26.2607 171H17.0447L16.0207 127.288Z" fill="#0F5580"/>
<path d="M49.6357 171.384C46.4784 171.384 44.0251 170.573 42.2757 168.952C40.5264 167.288 39.6517 164.707 39.6517 161.208C39.6517 158.264 40.2277 155.021 41.3797 151.48C42.5317 147.939 44.4091 144.888 47.0117 142.328C49.6144 139.725 52.9211 138.424 56.9317 138.424C61.6251 138.424 63.9717 140.472 63.9717 144.568C63.9717 146.957 63.2891 149.155 61.9237 151.16C60.5584 153.165 58.7451 154.787 56.4837 156.024C54.2224 157.219 51.8117 157.901 49.2517 158.072C49.1664 159.352 49.1237 160.205 49.1237 160.632C49.1237 162.723 49.4864 164.152 50.2117 164.92C50.9371 165.645 52.1104 166.008 53.7317 166.008C56.0357 166.008 57.9984 165.475 59.6197 164.408C61.2837 163.341 63.0971 161.72 65.0597 159.544H67.2357C62.4997 167.437 56.6331 171.384 49.6357 171.384ZM49.7637 155C51.3424 154.915 52.8357 154.36 54.2437 153.336C55.6944 152.312 56.8464 151.011 57.6997 149.432C58.5957 147.853 59.0437 146.189 59.0437 144.44C59.0437 142.691 58.5104 141.816 57.4437 141.816C55.9077 141.816 54.3931 143.16 52.8997 145.848C51.4491 148.536 50.4037 151.587 49.7637 155Z" fill="#0F5580"/>
<path d="M89.1102 171.384C86.5076 171.384 84.5876 170.701 83.3502 169.336C82.1556 167.928 81.5582 166.2 81.5582 164.152C81.5582 163.256 81.6649 162.253 81.8782 161.144C82.0916 159.992 82.3049 158.883 82.5182 157.816C82.7742 156.749 82.9449 156.067 83.0302 155.768C83.3716 154.275 83.6916 152.803 83.9902 151.352C84.2889 149.901 84.4382 148.728 84.4382 147.832C84.4382 145.656 83.6702 144.568 82.1342 144.568C81.0249 144.568 80.0436 145.123 79.1902 146.232C78.3369 147.299 77.6542 148.707 77.1422 150.456L72.7902 171H63.5742L70.3582 139H79.5742L78.8702 142.328C81.0036 139.939 83.4996 138.744 86.3582 138.744C88.5342 138.744 90.2622 139.341 91.5422 140.536C92.8222 141.731 93.4622 143.544 93.4622 145.976C93.4622 147.213 93.3129 148.6 93.0142 150.136C92.7156 151.629 92.2889 153.464 91.7342 155.64C91.3929 156.963 91.0729 158.264 90.7742 159.544C90.5182 160.781 90.3902 161.763 90.3902 162.488C90.3902 163.341 90.5822 164.003 90.9662 164.472C91.3502 164.941 92.0116 165.176 92.9502 165.176C94.2302 165.176 95.2542 164.728 96.0222 163.832C96.7902 162.893 97.5582 161.464 98.3262 159.544H101.014C99.4356 164.237 97.6009 167.395 95.5102 169.016C93.4622 170.595 91.3289 171.384 89.1102 171.384Z" fill="#0F5580"/>
<path d="M106.959 171.384C104.527 171.384 102.5 170.552 100.879 168.888C99.2574 167.224 98.4467 164.621 98.4467 161.08C98.4467 157.923 99.0654 154.616 100.303 151.16C101.583 147.661 103.46 144.717 105.935 142.328C108.452 139.896 111.439 138.68 114.895 138.68C116.644 138.68 117.945 138.979 118.799 139.576C119.652 140.173 120.079 140.963 120.079 141.944V142.2L123.215 127.48L132.687 126.2L125.327 160.76C125.156 161.4 125.071 162.083 125.071 162.808C125.071 163.661 125.263 164.28 125.647 164.664C126.073 165.005 126.756 165.176 127.695 165.176C128.889 165.176 129.913 164.664 130.767 163.64C131.663 162.616 132.367 161.251 132.879 159.544H135.567C132.964 167.181 128.676 171 122.703 171C120.953 171 119.524 170.531 118.415 169.592C117.348 168.653 116.687 167.288 116.431 165.496C115.321 167.203 113.977 168.611 112.399 169.72C110.863 170.829 109.049 171.384 106.959 171.384ZM111.119 165.176C112.143 165.176 113.167 164.707 114.191 163.768C115.257 162.829 115.983 161.528 116.367 159.864V159.544L119.503 144.888C119.119 143.395 118.244 142.648 116.879 142.648C115.172 142.648 113.636 143.651 112.271 145.656C110.905 147.619 109.839 150.008 109.071 152.824C108.303 155.597 107.919 158.051 107.919 160.184C107.919 162.317 108.217 163.683 108.815 164.28C109.455 164.877 110.223 165.176 111.119 165.176Z" fill="#0F5580"/>
<path d="M143.016 171.384C139.858 171.384 137.405 170.573 135.656 168.952C133.906 167.288 133.032 164.707 133.032 161.208C133.032 158.264 133.608 155.021 134.76 151.48C135.912 147.939 137.789 144.888 140.392 142.328C142.994 139.725 146.301 138.424 150.312 138.424C155.005 138.424 157.352 140.472 157.352 144.568C157.352 146.957 156.669 149.155 155.304 151.16C153.938 153.165 152.125 154.787 149.864 156.024C147.602 157.219 145.192 157.901 142.632 158.072C142.546 159.352 142.504 160.205 142.504 160.632C142.504 162.723 142.866 164.152 143.592 164.92C144.317 165.645 145.49 166.008 147.112 166.008C149.416 166.008 151.378 165.475 153 164.408C154.664 163.341 156.477 161.72 158.44 159.544H160.616C155.88 167.437 150.013 171.384 143.016 171.384ZM143.144 155C144.722 154.915 146.216 154.36 147.624 153.336C149.074 152.312 150.226 151.011 151.08 149.432C151.976 147.853 152.424 146.189 152.424 144.44C152.424 142.691 151.89 141.816 150.824 141.816C149.288 141.816 147.773 143.16 146.28 145.848C144.829 148.536 143.784 151.587 143.144 155Z" fill="#0F5580"/>
<path d="M167.066 171.384C164.634 171.384 162.608 170.552 160.986 168.888C159.365 167.224 158.554 164.621 158.554 161.08C158.554 157.923 159.173 154.616 160.41 151.16C161.69 147.661 163.568 144.717 166.042 142.328C168.56 139.896 171.546 138.68 175.002 138.68C176.752 138.68 178.053 138.979 178.906 139.576C179.76 140.173 180.186 140.963 180.186 141.944V142.2L183.322 127.48L192.794 126.2L185.434 160.76C185.264 161.4 185.178 162.083 185.178 162.808C185.178 163.661 185.37 164.28 185.754 164.664C186.181 165.005 186.864 165.176 187.802 165.176C188.997 165.176 190.021 164.664 190.874 163.64C191.77 162.616 192.474 161.251 192.986 159.544H195.674C193.072 167.181 188.784 171 182.81 171C181.061 171 179.632 170.531 178.522 169.592C177.456 168.653 176.794 167.288 176.538 165.496C175.429 167.203 174.085 168.611 172.506 169.72C170.97 170.829 169.157 171.384 167.066 171.384ZM171.226 165.176C172.25 165.176 173.274 164.707 174.298 163.768C175.365 162.829 176.09 161.528 176.474 159.864V159.544L179.61 144.888C179.226 143.395 178.352 142.648 176.986 142.648C175.28 142.648 173.744 143.651 172.378 145.656C171.013 147.619 169.946 150.008 169.178 152.824C168.41 155.597 168.026 158.051 168.026 160.184C168.026 162.317 168.325 163.683 168.922 164.28C169.562 164.877 170.33 165.176 171.226 165.176Z" fill="#0F5580"/>
<path d="M203.315 171.256C200.158 171.256 197.662 170.445 195.827 168.824C193.993 167.203 193.075 164.643 193.075 161.144C193.075 158.243 193.673 155.021 194.867 151.48C196.062 147.939 197.982 144.888 200.627 142.328C203.273 139.725 206.601 138.424 210.611 138.424C216.073 138.424 218.803 141.837 218.803 148.664V148.728C218.931 148.771 219.166 148.792 219.507 148.792C220.915 148.792 222.537 148.429 224.371 147.704C226.206 146.936 227.87 146.019 229.363 144.952L229.939 146.68C228.702 148.003 227.081 149.133 225.075 150.072C223.113 150.968 220.958 151.608 218.611 151.992C218.27 155.875 217.395 159.267 215.987 162.168C214.579 165.069 212.766 167.309 210.547 168.888C208.329 170.467 205.918 171.256 203.315 171.256ZM205.875 165.496C206.899 165.496 207.923 164.92 208.947 163.768C209.971 162.573 210.867 160.973 211.635 158.968C212.403 156.92 212.958 154.659 213.299 152.184C212.147 151.928 211.571 151.032 211.571 149.496C211.571 147.747 212.233 146.595 213.555 146.04C213.47 144.632 213.257 143.672 212.915 143.16C212.574 142.605 211.977 142.328 211.123 142.328C209.715 142.328 208.35 143.352 207.027 145.4C205.705 147.448 204.638 149.901 203.827 152.76C203.017 155.619 202.611 158.136 202.611 160.312C202.611 162.36 202.846 163.747 203.315 164.472C203.785 165.155 204.638 165.496 205.875 165.496Z" fill="#0F5580"/>
<path d="M227.408 139H236.624L235.792 142.968C237.243 141.688 238.544 140.707 239.696 140.024C240.891 139.341 242.171 139 243.536 139C244.902 139 245.968 139.469 246.736 140.408C247.547 141.347 247.952 142.477 247.952 143.8C247.952 145.037 247.547 146.125 246.736 147.064C245.926 148.003 244.795 148.472 243.344 148.472C242.406 148.472 241.766 148.259 241.424 147.832C241.126 147.363 240.891 146.701 240.72 145.848C240.592 145.293 240.464 144.888 240.336 144.632C240.208 144.376 239.974 144.248 239.632 144.248C238.736 144.248 237.968 144.44 237.328 144.824C236.731 145.165 235.942 145.784 234.96 146.68L229.84 171H220.624L227.408 139Z" fill="#0F5580"/>
<path d="M257.231 171.384C254.073 171.384 251.62 170.573 249.871 168.952C248.121 167.288 247.247 164.707 247.247 161.208C247.247 158.264 247.823 155.021 248.975 151.48C250.127 147.939 252.004 144.888 254.607 142.328C257.209 139.725 260.516 138.424 264.527 138.424C269.22 138.424 271.567 140.472 271.567 144.568C271.567 146.957 270.884 149.155 269.519 151.16C268.153 153.165 266.34 154.787 264.079 156.024C261.817 157.219 259.407 157.901 256.847 158.072C256.761 159.352 256.719 160.205 256.719 160.632C256.719 162.723 257.081 164.152 257.807 164.92C258.532 165.645 259.705 166.008 261.327 166.008C263.631 166.008 265.593 165.475 267.215 164.408C268.879 163.341 270.692 161.72 272.655 159.544H274.831C270.095 167.437 264.228 171.384 257.231 171.384ZM257.359 155C258.937 154.915 260.431 154.36 261.839 153.336C263.289 152.312 264.441 151.011 265.295 149.432C266.191 147.853 266.639 146.189 266.639 144.44C266.639 142.691 266.105 141.816 265.039 141.816C263.503 141.816 261.988 143.16 260.495 145.848C259.044 148.536 257.999 151.587 257.359 155Z" fill="#0F5580"/>
<path d="M280.897 171.384C278.849 171.384 277.121 171 275.713 170.232C274.305 169.421 273.26 168.397 272.577 167.16C271.895 165.88 271.553 164.557 271.553 163.192C271.553 161.784 271.895 160.568 272.577 159.544C273.217 158.477 274.007 157.709 274.945 157.24C276.609 154.253 278.06 151.245 279.297 148.216C280.535 145.144 281.708 141.837 282.817 138.296L292.289 137.016C292.503 142.477 292.865 148.387 293.377 154.744C293.591 157.304 293.697 159.16 293.697 160.312C293.697 162.915 293.036 165.048 291.713 166.712C290.391 168.376 288.748 169.571 286.785 170.296C284.865 171.021 282.903 171.384 280.897 171.384ZM278.849 166.328C280.428 166.328 281.751 165.859 282.817 164.92C283.884 163.981 284.417 162.467 284.417 160.376C284.417 159.096 284.289 157.304 284.033 155C283.607 150.136 283.329 146.872 283.201 145.208C282.177 148.579 280.449 152.611 278.017 157.304C278.999 157.816 279.489 158.563 279.489 159.544C279.489 160.355 279.212 161.08 278.657 161.72C278.145 162.36 277.484 162.68 276.673 162.68C275.777 162.68 275.201 162.403 274.945 161.848C274.945 163.384 275.244 164.515 275.841 165.24C276.481 165.965 277.484 166.328 278.849 166.328Z" fill="#0F5580"/>
</svg>
