<svg width="87" height="120" viewBox="0 0 87 120" fill="none" xmlns="http://www.w3.org/2000/svg">
<path d="M34.6304 83.5544C33.7809 83.3965 32.4972 83.7123 31.2578 84.0252C29.3082 84.5122 27.1004 85.0663 25.0417 84.2437C22.9654 83.422 21.8086 81.515 20.789 79.831C20.1477 78.7739 19.4867 77.6818 18.7933 77.2344C18.6332 77.1314 18.4329 77.0472 18.2168 76.9697C18.152 76.946 18.0842 76.9252 18.0145 76.9035C17.8406 76.8496 17.656 76.8004 17.4605 76.7569C17.3928 76.7418 17.328 76.7248 17.2572 76.7106C17.0245 76.6614 16.7789 76.6198 16.5275 76.5811L3.47586 113.742L15.3833 109.233C15.8606 109.062 16.3517 108.978 16.8349 108.978C18.0842 108.978 19.2794 109.535 20.0159 110.533L27.156 120L39.0096 86.2791C38.4734 85.933 37.9597 85.5586 37.4549 85.1889C36.4482 84.4551 35.4081 83.6959 34.6303 83.554L34.6304 83.5544Z" fill="#011826"/>
<path d="M69.046 76.7114C68.9772 76.7256 68.9144 76.7417 68.8476 76.7568C68.6502 76.8012 68.4636 76.8504 68.2878 76.9053C68.22 76.927 68.1522 76.9478 68.0884 76.9705C67.8713 77.049 67.669 77.1341 67.5079 77.2381C66.845 77.6721 66.1899 78.7585 65.5564 79.808C64.535 81.5015 63.379 83.421 61.2862 84.2464C60.5201 84.5537 59.7304 84.6681 58.9408 84.6662C57.6247 84.6615 56.3106 84.3325 55.0967 84.0271C53.8514 83.7179 52.5648 83.3964 51.7163 83.5543C50.9276 83.698 49.8885 84.4573 48.8837 85.191C48.3779 85.5588 47.8622 85.9342 47.327 86.2812L59.1677 119.978L66.304 110.517C67.3775 109.147 69.2722 108.627 70.9447 109.232L82.8061 113.597L69.7808 76.5835C69.5274 76.6223 69.2809 76.6648 69.0462 76.7121L69.046 76.7114Z" fill="#011826"/>
<path d="M84.5516 45.2608C85.4267 44.147 86.3332 42.9953 86.3332 42.1301C86.3332 41.2847 85.4335 40.1406 84.5614 39.0344C83.5164 37.7068 82.4341 36.334 82.1001 34.6604C81.7525 32.9707 82.2259 31.2036 82.6443 29.6452C82.9978 28.3233 83.3642 26.9552 83.0548 26.2251C82.7267 25.4772 81.447 24.7558 80.2076 24.0589C78.7089 23.2164 77.158 22.3418 76.1631 20.9151C75.1643 19.4807 74.905 17.687 74.6771 16.1051C74.4787 14.7502 74.2764 13.3488 73.6842 12.7778C73.088 12.2038 71.6197 12.0015 70.2007 11.8048C68.474 11.5675 66.6864 11.3217 65.2025 10.362C63.7342 9.4202 62.8287 7.92637 61.9505 6.48418C61.2267 5.2928 60.4783 4.0607 59.7024 3.75062C58.9255 3.43292 57.5102 3.79695 56.1392 4.14397C54.5235 4.54866 52.6938 5.00819 50.9162 4.67347C49.2034 4.35199 47.7822 3.3185 46.4091 2.31812C45.2512 1.47281 44.052 0.599121 43.1662 0.599121C42.2823 0.599121 41.0831 1.47092 39.925 2.31623C38.552 3.31661 37.1309 4.35294 35.4121 4.67347C33.661 5.01196 31.8273 4.54866 30.2116 4.14397C28.8336 3.79978 27.4144 3.44899 26.6642 3.74685C25.8578 4.06643 25.1036 5.30415 24.3748 6.49929C23.4968 7.93745 22.5912 9.42287 21.1228 10.3657C19.6398 11.3235 17.8502 11.5627 16.1189 11.7944C14.7056 11.9835 13.2413 12.1802 12.6489 12.7503C12.0488 13.328 11.8396 14.7492 11.6403 16.1241C11.3996 17.7731 11.1512 19.4798 10.1779 20.8992C9.17508 22.326 7.63415 23.194 6.14418 24.0336C4.89488 24.7361 3.60425 25.4642 3.2774 26.2292C2.95625 26.9686 3.32552 28.3358 3.68401 29.6577C4.10437 31.2112 4.57972 32.9727 4.23008 34.6729C3.88241 36.3351 2.81286 37.6976 1.77767 39.0156C0.904539 40.1276 0 41.2774 0 42.1302C0 43.002 0.907505 44.1603 1.78554 45.2818C2.8168 46.5961 3.88241 47.9568 4.23011 49.6076C4.57975 51.3153 4.10439 53.0768 3.68403 54.6303C3.32652 55.9522 2.95627 57.3184 3.27154 58.0446C3.6035 58.8208 4.88913 59.5489 6.13254 60.2524C7.62442 61.0949 9.16728 61.9657 10.1466 63.3783C11.1415 64.807 11.388 66.5299 11.6286 68.1948C11.8251 69.5573 12.0294 70.9671 12.6216 71.5374C13.151 72.0489 14.3423 72.2503 15.4157 72.3978L16.008 72.4792C17.6884 72.7033 19.5928 72.9557 21.0974 73.922C22.5853 74.8818 23.4899 76.3768 24.367 77.8233C25.0888 79.0147 25.8372 80.2487 26.6239 80.5607C27.4028 80.8718 28.8338 80.5125 30.2146 80.1693C30.5681 80.0804 30.9335 79.9925 31.3038 79.9074C31.4059 79.8837 31.508 79.8639 31.6112 79.8421C31.9225 79.775 32.2368 79.7183 32.556 79.6681C32.6562 79.653 32.7544 79.6369 32.8546 79.6237C33.2759 79.5679 33.6992 79.5273 34.1245 79.5273C34.4417 79.5273 34.758 79.5708 35.0732 79.6133C35.1881 79.6275 35.304 79.6209 35.418 79.6426C36.7075 79.879 37.836 80.5267 38.9035 81.2623C39.2591 81.5072 39.6087 81.7625 39.9554 82.0159C40.8089 82.639 41.6133 83.2271 42.3479 83.5363C42.9146 83.7642 43.3792 83.7774 44.0048 83.525C44.7335 83.2139 45.533 82.6333 46.3766 82.0159C47.7614 81.0032 49.1954 79.9584 50.928 79.6407C52.689 79.3135 54.5217 79.7674 56.1373 80.1721C57.5104 80.5163 58.9335 80.8765 59.7026 80.5636C60.5011 80.2477 61.2495 79.0081 61.9733 77.8092C62.8386 76.3729 63.7343 74.8875 65.1946 73.9333C66.713 72.9585 68.6183 72.7051 70.2979 72.481L70.8881 72.4016C72.0451 72.238 73.1854 72.0196 73.6823 71.5411C74.2765 70.9691 74.4788 69.5593 74.6752 68.1985C74.9158 66.5325 75.1643 64.8097 76.1612 63.3763C77.1581 61.9646 78.6971 61.0965 80.1871 60.2578C81.4373 59.5524 82.7298 58.8244 83.0569 58.0576C83.0588 58.0538 83.0608 58.05 83.0628 58.0443C83.378 57.3181 83.0078 55.9519 82.6503 54.6301C82.2299 53.0766 81.7546 51.3151 82.1042 49.6149C82.4342 47.9583 83.5106 46.5863 84.5517 45.2607L84.5516 45.2608ZM73.3738 39.0724L63.852 48.0022C63.302 48.5241 63.0515 49.2692 63.1812 50.001L65.4254 62.6173C65.8477 64.9727 64.8616 67.3128 62.8492 68.7218C61.71 69.5208 60.3782 69.9255 59.0396 69.9255C58.0123 69.9255 56.981 69.6863 56.0265 69.2031L44.2566 63.2281C43.5936 62.8991 42.7461 62.8972 42.0585 63.2376L30.3083 69.2021C28.1102 70.316 25.4957 70.1326 23.4833 68.7208C21.4718 67.3129 20.4847 64.9728 20.9071 62.6154L23.1513 49.9991C23.281 49.2673 23.0295 48.5212 22.4776 48.0002L12.9577 39.0705C11.1761 37.4044 10.5476 34.9535 11.3195 32.6758C12.0915 30.398 14.1018 28.7765 16.5651 28.4417L29.7022 26.5922C30.4771 26.4854 31.1155 26.0353 31.4612 25.3602L37.3492 13.8823C38.4511 11.7331 40.6776 10.4017 43.1625 10.4017H43.1782C45.6591 10.4055 47.8776 11.7434 48.9668 13.8878L54.8656 25.3563C55.2074 26.0258 55.8585 26.4872 56.6089 26.5921L69.7745 28.4435C72.2269 28.7744 74.2373 30.3979 75.0092 32.674C75.7861 34.9508 75.1575 37.4035 73.3739 39.0725L73.3738 39.0724Z" fill="#011826"/>
<path d="M69.1893 32.3884L56.0157 30.5352C53.9168 30.2411 52.0989 28.9646 51.1551 27.119L45.2543 15.6467C44.8535 14.8562 44.0777 14.3891 43.1711 14.3872H43.1653C42.2558 14.3872 41.4691 14.8562 41.0644 15.6467L35.1785 27.1207C34.2347 28.9683 32.4098 30.2447 30.2973 30.5369L17.1551 32.3864C16.2457 32.5112 15.5395 33.0794 15.2586 33.9106C14.9757 34.7436 15.1957 35.604 15.8489 36.2139L25.3747 45.1493C26.901 46.5902 27.5954 48.6535 27.2329 50.674L24.9887 63.2894C24.8326 64.1555 25.1832 64.979 25.9208 65.4972C26.6564 66.0135 27.5767 66.0796 28.3771 65.674L40.1452 59.699C41.0979 59.2282 42.137 58.9927 43.1722 58.9927C44.2034 58.9927 45.2327 59.2263 46.1687 59.6896L57.9574 65.674C58.75 66.0749 59.6722 66.0125 60.4118 65.4972C61.1494 64.979 61.5 64.1554 61.3438 63.2912L59.0996 50.671C58.7402 48.6485 59.4335 46.5872 60.9539 45.1518C60.9559 45.1499 60.9578 45.1481 60.9578 45.1481L70.4837 36.2127C71.1368 35.6038 71.3568 34.7433 71.0759 33.9094C70.795 33.0783 70.0889 32.51 69.1893 32.388V32.3884ZM43.629 55.1523C37.3267 55.1523 32.2009 50.2175 32.2009 44.1501C32.2009 38.0826 37.3267 33.1449 43.629 33.1449C49.9313 33.1449 55.0602 38.0817 55.0602 44.1501C55.0602 50.2175 49.9324 55.1523 43.629 55.1523Z" fill="#011826"/>
</svg>
